{
  "accessors": [
    {
      "bufferView": 1,
      "componentType": 5126,
      "count": 65532,
      "max": [
        7.3890237808227539,
        3.574444055557251,
        2.5880799293518066
      ],
      "min": [
        -7.1935200691223145,
        -2.6618099212646484,
        -14.151399612426758
      ],
      "type": "VEC3"
    },
    {
      "bufferView": 1,
      "byteOffset": 786384,
      "componentType": 5126,
      "count": 65532,
      "max": [
        0.99997419118881226,
        0.99992239475250244,
        0.99999827146530151
      ],
      "min": [
        -0.99997419118881226,
        -0.99997067451477051,
        -0.99999278783798218
      ],
      "type": "VEC3"
    },
    {
      "bufferView": 0,
      "componentType": 5125,
      "count": 386835,
      "max": [
        65531
      ],
      "min": [
        0
      ],
      "type": "SCALAR"
    },
    {
      "bufferView": 1,
      "byteOffset": 1572768,
      "componentType": 5126,
      "count": 7083,
      "max": [
        0,
        3.5476059913635254,
        2.4787230491638184
      ],
      "min": [
        -7.3890237808227539,
        -2.6618099212646484,
        -14.146244049072266
      ],
      "type": "VEC3"
    },
    {
      "bufferView": 1,
      "byteOffset": 1657764,
      "componentType": 5126,
      "count": 7083,
      "max": [
        0.99996697902679443,
        0.99972802400588989,
        0.99957805871963501
      ],
      "min": [
        -0.99928849935531616,
        -0.99973583221435547,
        -0.99999278783798218
      ],
      "type": "VEC3"
    },
    {
      "bufferView": 0,
      "byteOffset": 1547340,
      "componentType": 5125,
      "count": 31827,
      "max": [
        7082
      ],
      "min": [
        0
      ],
      "type": "SCALAR"
    }
  ],
  "asset": {
    "extras": {
      "author": "Djsedj (https://sketchfab.com/djsedj)",
      "license": "CC-BY-4.0 (http://creativecommons.org/licenses/by/4.0/)",
      "source": "https://sketchfab.com/models/3d3e6cd1ed9549c288e33de168e7cbfb",
      "title": "Generic Rabbit"
    },
    "generator": "Sketchfab-3.18.7",
    "version": "2.0"
  },
  "bufferViews": [
    {
      "buffer": 0,
      "byteLength": 1674648,
      "byteOffset": 0,
      "name": "floatBufferViews",
      "target": 34963
    },
    {
      "buffer": 0,
      "byteLength": 1742760,
      "byteOffset": 1674648,
      "byteStride": 12,
      "name": "floatBufferViews",
      "target": 34962
    }
  ],
  "buffers": [
    {
      "byteLength": 3417408,
      "uri": "scene.bin"
    }
  ],
  "materials": [
    {
      "doubleSided": true,
      "emissiveFactor": [
        0,
        0,
        0
      ],
      "name": "Scene_-_Root",
      "pbrMetallicRoughness": {
        "baseColorFactor": [
          1,
          1,
          1,
          1
        ],
        "metallicFactor": 0,
        "roughnessFactor": 0.59999999999999998
      }
    }
  ],
  "meshes": [
    {
      "primitives": [
        {
          "attributes": {
            "NORMAL": 1,
            "POSITION": 0
          },
          "indices": 2,
          "material": 0,
          "mode": 4
        }
      ]
    },
    {
      "primitives": [
        {
          "attributes": {
            "NORMAL": 4,
            "POSITION": 3
          },
          "indices": 5,
          "material": 0,
          "mode": 4
        }
      ]
    }
  ],
  "nodes": [
    {
      "children": [
        1
      ],
      "name": "RootNode (gltf orientation matrix)",
      "rotation": [
        -0.70710678118654746,
        -0,
        -0,
        0.70710678118654757
      ]
    },
    {
      "children": [
        2
      ],
      "name": "RootNode (model correction matrix)"
    },
    {
      "children": [
        3,
        4
      ],
      "name": "bunny.obj.cleaner.materialmerger.gles"
    },
    {
      "mesh": 0,
      "name": ""
    },
    {
      "mesh": 1,
      "name": ""
    }
  ],
  "scene": 0,
  "scenes": [
    {
      "name": "OSG_Scene",
      "nodes": [
        0
      ]
    }
  ]
}

